# xmcd
#
# Track frame offsets: 
#        150
#        22592
#        37532
#        59532
#        76651
#        92635
#        111350
#        131069
#        154969
#        174975
#        194910
#        223629
#        239689
#        259700
#        278078
#        295433
#        313778
#        330197
#
# Disc length: 4798 seconds
#
# Revision: 2
# Processed by: cddbd v1.5.2PL0 Copyright (c) Steve Scherf et al.
# Submitted via: ExactAudioCopy v1.3
#
DISCID=fb12bc12
DTITLE=Various Artist - Akella Presents - Blues-Rock - vol.32  CD1
DYEAR=2013
DGENRE=Rock
TTITLE0=HEAVY BLUES CHEVY - Old Enough To Know Better
TTITLE1=REBEL PRIDE - Texas Mud
TTITLE2=GREGG WRIGHT's LEFT HOOK - Crank it up!!!
TTITLE3=AMERICAN STANDARD - Sugathang
TTITLE4=BRANT PARKER - Up From the Bottom
TTITLE5=JIM SUHLER and MONKEY BEAT - Tijuana Bible
TTITLE6=BACK TO BLUE - Jerusalem Blues
TTITLE7=TOTH BAGI BAND - Losein'The Blues
TTITLE8=DAVE STEFFEN BAND - Don't Stop
TTITLE9=NUBLUES - Fools Gold
TTITLE10=FATT CATT FREDDIE - Take These Blues
TTITLE11=DEMIAN BAND - Baby, Please Don't Go
TTITLE12=BLUE PLATE SPESIAL - She's Got My Number
TTITLE13=BUDDAHEADS - Mumbo Jumbo
TTITLE14=BRENDAN CROKER - On My Knees
TTITLE15=ALVIN LEE - Moving The Blues
TTITLE16=SEASICK STEVE - 8 Ball
TTITLE17=LARRY MILLER - Delilah
EXTD=
EXTT0=
EXTT1=
EXTT2=
EXTT3=
EXTT4=
EXTT5=
EXTT6=
EXTT7=
EXTT8=
EXTT9=
EXTT10=
EXTT11=
EXTT12=
EXTT13=
EXTT14=
EXTT15=
EXTT16=
EXTT17=
PLAYORDER=
